<svg width="17" height="17" viewBox="0 0 17 17" fill="none" xmlns="http://www.w3.org/2000/svg">
<g clip-path="url(#clip0_153_57)">
<path d="M11.109 0H5.89054C1.12842 0 -0.000488281 1.12891 -0.000488281 5.89103V11.1095C-0.000488281 15.8716 1.12842 17.0005 5.89054 17.0005H11.109C15.8711 17.0005 17 15.8716 17 11.1095V5.89103C17 1.12891 15.86 0 11.109 0ZM13.7238 12.1274H12.4897C12.0222 12.1274 11.8783 11.7566 11.0373 10.9044C10.3068 10.1963 9.98329 10.1023 9.8032 10.1023C9.54873 10.1023 9.47648 10.174 9.47648 10.523V11.6381C9.47648 11.9372 9.38245 12.1168 8.59089 12.1168C7.28189 12.1168 5.82945 11.3252 4.81104 9.85044C3.2752 7.68931 2.85498 6.07059 2.85498 5.73591C2.85498 5.55581 2.9267 5.38741 3.27254 5.38741H4.50929C4.8222 5.38741 4.9412 5.53137 5.06286 5.86606C5.67432 7.63141 6.69273 9.17787 7.11295 9.17787C7.26807 9.17787 7.33979 9.10616 7.33979 8.71037V6.88712C7.29251 6.04616 6.84998 5.97391 6.84998 5.67534C6.84998 5.53137 6.96898 5.38741 7.1597 5.38741H9.10461C9.36757 5.38741 9.46426 5.53137 9.46426 5.84109V8.30078C9.46426 8.56641 9.58326 8.66044 9.65498 8.66044C9.81011 8.66044 9.94292 8.56641 10.2303 8.27847C11.1186 7.28238 11.755 5.74653 11.755 5.74653C11.8379 5.56644 11.9819 5.39803 12.2948 5.39803H13.5315C13.9023 5.39803 13.9852 5.58875 13.9023 5.85438C13.7472 6.57369 12.2337 8.70984 12.2337 8.70984C12.1035 8.92553 12.0536 9.01956 12.2337 9.26022C12.3665 9.44031 12.7984 9.81378 13.0858 10.1485C13.6144 10.7488 14.0208 11.2524 14.1292 11.6009C14.2508 11.9467 14.0713 12.1268 13.7222 12.1268L13.7238 12.1274Z" fill="white"/>
</g>
<defs>
<clipPath id="clip0_153_57">
<rect width="17" height="17" fill="white"/>
</clipPath>
</defs>
</svg>
